<svg xmlns="http://www.w3.org/2000/svg">
  <symbol id="fb" viewBox="0 0 512 512" >
    <path d="M308.3,508.5c-2.5,0.1-4.1,0.3-5.7,0.3c-34.2,0-68.3-0.1-102.5,0.1c-4.8,0-6.1-1.3-6.1-6.1c0.1-79.6,0.1-159.3,0.1-238.9   c0-2.1,0-4.2,0-6.9c-18.6,0-36.7,0-55.1,0c0-28.4,0-56.3,0-85c1.9,0,3.7,0,5.4,0c15,0,30-0.1,45,0.1c3.8,0,4.8-1.1,4.8-4.8   c-0.2-22.3-0.2-44.7,0-67c0.1-15.6,2.6-30.8,9.8-44.9c10.3-19.9,26.6-32.8,47.2-40.8c16.8-6.6,34.5-9,52.3-9.3   c29-0.4,58-0.2,87-0.3c2.7,0,4.9-0.1,4.9,3.7c-0.1,27.5-0.1,55-0.1,82.5c0,0.3-0.1,0.6-0.5,1.9c-1.7,0-3.6,0-5.5,0   c-18,0-36-0.1-54,0c-10.4,0-18.8,4.2-24.1,13.3c-1.6,2.7-2.6,6.2-2.6,9.4c-0.3,17,0,34-0.2,51c0,4,1.2,5.1,5.1,5.1   c25-0.2,50-0.1,75-0.1c2,0,3.9,0,7.3,0c-3.5,28.6-6.9,56.6-10.4,84.9c-26,0-51.3,0-77.1,0C308.3,340.8,308.3,424.4,308.3,508.5z"/>
  </symbol>
  
  <symbol id='instagram'  width="48px" height="48px" viewBox="0 0 48 48">
    <path d="M5.583,13c-0.553,0-1-0.447-1-1V3c0-0.553,0.447-1,1-1s1,0.447,1,1v9C6.583,12.553,6.136,13,5.583,13z"/>
		<path d="M8.958,13c-0.553,0-1-0.447-1-1V2.25c0-0.553,0.447-1,1-1s1,0.447,1,1V12C9.958,12.553,9.511,13,8.958,13z"/>
		<path d="M12.333,13c-0.553,0-1-0.447-1-1V2.25c0-0.553,0.447-1,1-1s1,0.447,1,1V12C13.333,12.553,12.886,13,12.333,13z"/>
		<path d="M37.292,48H11.917C4.344,48,0,44.014,0,37.062V12.125C0,4.873,4.27,0,10.625,0h27.584C42.918,0,48,4.524,48,11.834v25.083
			C48,43.132,43.297,48,37.292,48z M10.625,2C4.259,2,2,7.454,2,12.125v24.938C2,44.449,7.393,46,11.917,46h25.375
			C42.257,46,46,42.095,46,36.917V11.834C46,5.76,41.956,2,38.209,2H10.625z"/>
		<path d="M23.999,15.25c-4.234,0-7.667,3.434-7.667,7.668c0,4.234,3.433,7.666,7.667,7.666c4.233,0,7.667-3.432,7.667-7.666
			C31.666,18.684,28.232,15.25,23.999,15.25z M23.999,26.75c-2.117,0-3.834-1.716-3.834-3.833s1.717-3.834,3.834-3.834
			s3.834,1.717,3.834,3.834S26.116,26.75,23.999,26.75z"/>
		<path d="M23.999,35.084c-6.709,0-12.167-5.458-12.167-12.167S17.29,10.75,23.999,10.75s12.167,5.458,12.167,12.167
			S30.708,35.084,23.999,35.084z M23.999,12.75c-5.606,0-10.167,4.561-10.167,10.167c0,5.606,4.561,10.167,10.167,10.167
			c5.606,0,10.167-4.561,10.167-10.167C34.166,17.311,29.605,12.75,23.999,12.75z"/>
		<rect x="32.999" y="14.92" width="14" height="2.16"/>
		<rect x="1.499" y="14.949" width="13.25" height="2.102"/>
		<path d="M41.333,10.133c0,1.215-0.985,2.201-2.202,2.201h-3.264c-1.217,0-2.202-0.986-2.202-2.201V6.867
			c0-1.215,0.985-2.201,2.202-2.201h3.264c1.217,0,2.202,0.986,2.202,2.201V10.133z"/>
  </symbol>
</svg>