<svg xmlns="http://www.w3.org/2000/svg" viewBox="0 0 16 17" width="16" height="17">
	<style>
		tspan { white-space:pre }
		.shp0 { fill: #151918 } 
	</style>
	<g id="Share">
		<path id="Shape 16" class="shp0" d="M12.5,12.01c-0.63,0 -1.2,0.26 -1.63,0.66l-5.94,-3.54c0.04,-0.2 0.08,-0.39 0.08,-0.6c0,-0.21 -0.03,-0.4 -0.08,-0.6l5.88,-3.51c0.45,0.43 1.04,0.69 1.7,0.69c1.38,0 2.5,-1.14 2.5,-2.56c0,-1.42 -1.12,-2.56 -2.5,-2.56c-1.38,0 -2.5,1.14 -2.5,2.56c0,0.2 0.03,0.4 0.07,0.6l-5.88,3.51c-0.45,-0.43 -1.04,-0.69 -1.7,-0.69c-1.38,0 -2.5,1.14 -2.5,2.56c0,1.42 1.12,2.56 2.5,2.56c0.66,0 1.25,-0.26 1.7,-0.69l5.93,3.55c-0.04,0.18 -0.07,0.37 -0.07,0.55c0,1.37 1.09,2.49 2.43,2.49c1.34,0 2.43,-1.12 2.43,-2.49c0,-1.37 -1.09,-2.49 -2.43,-2.49z" />
	</g>
</svg>