<svg xmlns="http://www.w3.org/2000/svg">
  <symbol id="search"  width="993.1px" height="837.084px" viewBox="40 0 900 800">
    <path d="M638.799,473.394l-35.852,35.851l-53.656-53.601c40.666-44.606,65.654-103.693,65.654-168.605
    c0-138.508-112.707-251.136-251.127-251.136c-138.507,0-251.122,112.628-251.122,251.136c0,138.42,112.628,251.105,251.122,251.105
    c64.939,0,124.014-24.988,168.6-65.611l53.6,53.658l-35.821,35.835L794.311,806.14l88.632-88.646L638.799,473.394z M363.805,514.205
    c-125.299,0-227.184-101.942-227.184-227.167c0-125.313,101.885-227.197,227.184-227.197c125.238,0,227.175,101.886,227.175,227.197
    C590.979,412.262,489.043,514.205,363.805,514.205z M794.281,772.317L583.973,562.024l54.826-54.826l210.31,210.295L794.281,772.317
    z"/>
  </symbol>
  <symbol id="g+" viewBox="0 0 1000 1000" >
    <g><path d="M62,254.4c0,83.2,27.3,143.2,81.1,178.5c44,28.9,95.2,33.2,121.7,33.2c6.5,0,11.6-0.3,15.2-0.5c0,0-8.4,55.9,32.3,111.2l-1.8,0c-70.5,0-300.4,15-300.4,207.5C10,980,221.2,989.9,263.5,989.9c3.3,0,5.2-0.1,5.2-0.1c0.5,0,3.5,0.1,8.7,0.1c27.2,0,97.5-3.5,162.7-35.8c84.6-41.9,127.6-114.6,127.6-216.3c0-98.3-65.4-156.8-113.2-199.5c-29.2-26-54.3-48.5-54.3-70.4c0-22.3,18.4-39,41.7-60.2c37.7-34.3,73.2-83.1,73.2-175.5c0-81.2-10.3-135.6-74-170.2c6.6-3.5,30.1-6,41.7-7.6c34.5-4.8,85-10.2,85-38.9V10H316.3C313.8,10.1,62,19.6,62,254.4z M467.9,756.2c4.8,78.3-61,136.1-159.7,143.4c-100.3,7.5-182.9-38.5-187.7-116.7c-2.3-37.6,13.9-74.4,45.7-103.7c32.2-29.7,76.5-48,124.6-51.7c5.7-0.4,11.3-0.6,16.9-0.6C400.5,626.9,463.4,682.5,467.9,756.2z M402.3,200.8c24.7,88.4-12.6,180.7-71.9,197.8c-6.8,1.9-13.9,3-21,3c-54.4,0-108.3-56-128.2-133.2c-11.2-43.4-10.3-81.3,2.5-117.7c12.6-35.8,35.2-60.1,63.6-68.2c6.8-2,13.9-3,21-3C333.9,79.4,376.1,107.2,402.3,200.8z M826,393.2v-167H722.1v167H558V499h164v167H826V499h164V393.2H826z"/></g>
  </symbol>
  <symbol id="twitter" viewBox="0 0 48 48">
    <g><path d="M37.65812,15.47861c-0.10059-0.11523-0.26465-0.15137-0.40576-0.08887    c-0.60498,0.26953-1.17188,0.43555-1.63574,0.53809c1.07227-1.07422,1.44189-2.21973,1.46094-2.28027    c0.04248-0.13574-0.00146-0.2832-0.11133-0.37402c-0.10986-0.0918-0.26416-0.10547-0.38867-0.03906    c-1.70215,0.91699-2.81445,1.15527-3.2207,1.21582c-1.75684-2.20898-4.63037-2.08789-6.74219-0.96387    c-2.06299,1.09961-3.86914,3.39844-3.24023,5.98145c-6.66357-0.4209-10.5835-5.50195-10.62305-5.55469    c-0.06982-0.0918-0.16211-0.14258-0.2959-0.13867c-0.11523,0.00586-0.22021,0.06738-0.28125,0.16602    c-1.93555,3.13086-0.1958,5.7666,0.92773,6.99609c-0.7002-0.1748-1.3291-0.48145-1.33838-0.48535    c-0.10938-0.05469-0.23877-0.04785-0.34131,0.01758c-0.10303,0.06445-0.16504,0.17871-0.16357,0.2998    c0.03564,3.15723,1.94092,4.65527,3.31201,5.3252c-0.54834,0.01367-0.93896-0.05469-0.94531-0.05566    c-0.12939-0.02441-0.25439,0.02637-0.33398,0.125c-0.08008,0.09961-0.09961,0.23535-0.05127,0.35254    c1.17432,2.85352,3.2749,3.69336,4.49072,3.93945c-3.16406,2.10937-7.0459,1.73144-7.08936,1.72754    c-0.15918-0.02441-0.31494,0.08008-0.36768,0.23438c-0.05273,0.15527,0.0083,0.3252,0.14746,0.41113    c2.07568,1.28125,5.24023,2.26465,7.87451,2.44727c0.25439,0.0166,0.52246,0.02637,0.80371,0.02637    c2.82812,0,6.9082-0.92871,10.20361-3.62793c3.5166-2.88086,4.90576-6.92871,5.42041-9.08496    c0.3208-1.34473,0.39502-3.32812,0.41064-3.93164c1.54199-1.13281,2.5166-2.69629,2.55859-2.76465    C37.77336,15.76181,37.75969,15.59384,37.65812,15.47861z M28.37541,29.87314c-0.09131,0-0.18311-0.03516-0.25146-0.10645    c-0.13428-0.13867-0.13086-0.36035,0.0083-0.49512c0.24414-0.23535,0.47021-0.47852,0.67969-0.72461    c0.12549-0.14844,0.34766-0.16406,0.49316-0.04004c0.14746,0.125,0.16504,0.3457,0.04004,0.49316    c-0.22412,0.26367-0.46582,0.52246-0.72656,0.77539C28.5507,29.84091,28.46281,29.87314,28.37541,29.87314z M29.86857,27.31552    c0.75049-1.05078,1.36084-2.29102,1.76465-3.58691c0.05762-0.18359,0.25293-0.28711,0.43799-0.22949    c0.18457,0.05762,0.2876,0.25391,0.22998,0.43848c-0.42529,1.36523-1.06982,2.67383-1.86328,3.78418    c-0.06836,0.0957-0.17578,0.14648-0.28516,0.14648c-0.07031,0-0.14111-0.02051-0.20312-0.06445    C29.7924,27.6915,29.75627,27.47275,29.86857,27.31552z"/></g>
  </symbol>
  <symbol id="fb" viewBox="0 0 512 512">
    <g><path d="M308.3,508.5c-2.5,0.1-4.1,0.3-5.7,0.3c-34.2,0-68.3-0.1-102.5,0.1c-4.8,0-6.1-1.3-6.1-6.1c0.1-79.6,0.1-159.3,0.1-238.9   c0-2.1,0-4.2,0-6.9c-18.6,0-36.7,0-55.1,0c0-28.4,0-56.3,0-85c1.9,0,3.7,0,5.4,0c15,0,30-0.1,45,0.1c3.8,0,4.8-1.1,4.8-4.8   c-0.2-22.3-0.2-44.7,0-67c0.1-15.6,2.6-30.8,9.8-44.9c10.3-19.9,26.6-32.8,47.2-40.8c16.8-6.6,34.5-9,52.3-9.3   c29-0.4,58-0.2,87-0.3c2.7,0,4.9-0.1,4.9,3.7c-0.1,27.5-0.1,55-0.1,82.5c0,0.3-0.1,0.6-0.5,1.9c-1.7,0-3.6,0-5.5,0   c-18,0-36-0.1-54,0c-10.4,0-18.8,4.2-24.1,13.3c-1.6,2.7-2.6,6.2-2.6,9.4c-0.3,17,0,34-0.2,51c0,4,1.2,5.1,5.1,5.1   c25-0.2,50-0.1,75-0.1c2,0,3.9,0,7.3,0c-3.5,28.6-6.9,56.6-10.4,84.9c-26,0-51.3,0-77.1,0C308.3,340.8,308.3,424.4,308.3,508.5z"/></g>
  </symbol>
</svg>